<?xml version="1.0" encoding="UTF-8"?>
<svg id="Capa_2" data-name="Capa 2" xmlns="http://www.w3.org/2000/svg" viewBox="0 0 2000 2000">
  <defs>
    <style>
      .cls-1 {
        fill: #fff;
      }
    </style>
  </defs>
  <g>
    <path class="cls-1" d="M1252.56,539.29c-74.13-26.96-152.19-5.27-220.17,28.51,2.37-13.58-4.34-44.29,2-54.82,2.28-3.78,41.87-18.93,51.35-24.47,71.81-41.98,130.39-111.06,127.76-198.71-102.8,4.71-177.92,92.92-195.86,189.55-9.49-21.95-11.2-45.47-19.98-68.47-29.66-77.74-107.04-143.68-192.75-142.07,13.4,113.26,63.09,172.66,160.59,224.77,6.1,3.26,28.11,9.77,28.96,11.07,3.14,4.79-2.32,52.4,0,63.18-63.1-30.08-119.78-48.8-190.48-36.73-186.13,31.77-174.33,254.93-121.32,392.76,36.66,95.31,170.21,304.99,294.91,256.81,10.31-3.98,24.64-18.88,35.16-17.96,6.7.59,26.49,13.64,37.41,17.07,143.25,44.93,269.93-176.38,303.45-288.61,35.08-117.45,37.46-301.5-101.04-351.87ZM1312.31,896.2c-29.11,87.58-131.44,266.08-240.04,252.99-23.47-2.83-36.62-22.34-63.1-21.52-22.5.69-35.98,18.13-54.96,21.16-95.54,15.24-199.36-147.8-231.29-223.11-51.7-121.93-76.59-341.24,102.12-360.95,53.46-5.9,89.42,7.68,135.82,30.34,19.17,9.36,29,23.64,52.56,23.64,25.11,0,75.49-36.45,106.52-45.51,219.81-64.18,243.79,168.24,192.37,322.95Z"/>
    <path class="cls-1" d="M1115.55,720.23c53.98-5.15,32.65,98.74,18.65,128.44-21.78,46.19-63.96,98.09-88.02,19.15-14.23-46.69,14.16-142.32,69.37-147.58Z"/>
    <path class="cls-1" d="M892.27,720.2c58.07-11.81,91.12,93.69,84.98,140.01-14.63,110.51-87.2,4.18-102-44.71-7.15-23.63-15.77-88.64,17.02-95.3Z"/>
  </g>
  <g>
    <g>
      <path class="cls-1" d="M292.52,1418.22h-86.13l-14.8,42.03h-35.22l73.7-206h39.07l73.7,206h-35.52l-14.8-42.03ZM283.05,1390.69l-33.45-95.6-33.74,95.6h67.19Z"/>
      <path class="cls-1" d="M347.48,1463.51h-42.47l-14.8-42.03h-81.5l-14.8,42.03h-42.17l76.04-212.54h43.67l76.04,212.54ZM309.63,1456.98h28.57l-71.36-199.47h-34.47l-71.36,199.47h28.27l14.8-42.03h90.75l14.8,42.03ZM287.65,1393.96h-76.41l38.37-108.72,38.04,108.72ZM220.48,1387.42h57.97l-28.86-82.48-29.11,82.48Z"/>
    </g>
    <g>
      <path class="cls-1" d="M528.14,1345.4c-4.93,9.27-12.83,16.82-23.68,22.64-10.86,5.82-24.77,8.73-41.73,8.73h-37.29v83.47h-33.74v-205.71h71.04c15.78,0,29.15,2.71,40.1,8.14,10.95,5.43,19.14,12.78,24.57,22.05,5.42,9.28,8.14,19.64,8.14,31.08,0,10.46-2.47,20.33-7.4,29.6ZM491.44,1340.52c6.31-5.82,9.47-14.06,9.47-24.71,0-22.5-12.73-33.74-38.18-33.74h-37.29v67.19h37.29c12.82,0,22.39-2.91,28.71-8.73Z"/>
      <path class="cls-1" d="M428.7,1463.51h-40.28v-212.24h74.3c16.22,0,30.2,2.85,41.56,8.48,11.48,5.69,20.2,13.53,25.93,23.32,5.7,9.75,8.59,20.76,8.59,32.73,0,10.94-2.62,21.42-7.78,31.13h0c-5.22,9.82-13.64,17.89-25.02,23.99-11.29,6.05-25.85,9.12-43.28,9.12h-34.03v83.46ZM394.96,1456.98h27.21v-83.46h40.56c16.34,0,29.86-2.81,40.19-8.34,10.22-5.48,17.73-12.64,22.34-21.29h0c4.66-8.76,7.02-18.2,7.02-28.07,0-10.8-2.59-20.7-7.69-29.43-5.08-8.67-12.88-15.66-23.2-20.77-10.45-5.18-23.45-7.8-38.65-7.8h-67.77v199.17ZM462.73,1352.52h-40.56v-73.72h40.56c34.26,0,41.45,20.13,41.45,37.01,0,11.56-3.54,20.68-10.52,27.12-6.91,6.37-17.31,9.6-30.92,9.6ZM428.7,1345.98h34.03c11.92,0,20.83-2.65,26.5-7.87h0c5.66-5.22,8.42-12.52,8.42-22.31,0-20.79-11.09-30.47-34.91-30.47h-34.03v60.65Z"/>
    </g>
    <g>
      <path class="cls-1" d="M721.13,1345.4c-4.93,9.27-12.83,16.82-23.68,22.64-10.86,5.82-24.77,8.73-41.73,8.73h-37.29v83.47h-33.74v-205.71h71.04c15.78,0,29.15,2.71,40.1,8.14,10.95,5.43,19.14,12.78,24.57,22.05,5.42,9.28,8.14,19.64,8.14,31.08,0,10.46-2.47,20.33-7.4,29.6ZM684.43,1340.52c6.31-5.82,9.47-14.06,9.47-24.71,0-22.5-12.73-33.74-38.18-33.74h-37.29v67.19h37.29c12.82,0,22.39-2.91,28.71-8.73Z"/>
      <path class="cls-1" d="M621.69,1463.51h-40.28v-212.24h74.3c16.22,0,30.2,2.85,41.56,8.48,11.48,5.69,20.2,13.53,25.93,23.32,5.7,9.75,8.59,20.76,8.59,32.73,0,10.94-2.62,21.42-7.78,31.13h0c-5.22,9.82-13.64,17.89-25.02,23.99-11.29,6.05-25.85,9.12-43.28,9.12h-34.03v83.46ZM587.95,1456.98h27.21v-83.46h40.56c16.34,0,29.86-2.81,40.19-8.34,10.22-5.48,17.73-12.64,22.34-21.3,4.66-8.76,7.02-18.2,7.02-28.06,0-10.8-2.59-20.7-7.69-29.43-5.08-8.67-12.88-15.66-23.2-20.77-10.45-5.18-23.45-7.8-38.65-7.8h-67.77v199.17ZM655.72,1352.52h-40.56v-73.72h40.56c34.26,0,41.45,20.13,41.45,37.01,0,11.56-3.54,20.68-10.52,27.12-6.91,6.37-17.31,9.6-30.92,9.6ZM621.69,1345.98h34.03c11.92,0,20.83-2.65,26.5-7.87h0c5.66-5.22,8.42-12.52,8.42-22.31,0-20.79-11.09-30.47-34.91-30.47h-34.03v60.65Z"/>
    </g>
    <g>
      <path class="cls-1" d="M808.61,1433.01h69.56v27.23h-103.3v-205.71h33.74v178.48Z"/>
      <path class="cls-1" d="M881.43,1463.51h-109.83v-212.24h40.28v178.48h69.56v33.76ZM778.13,1456.98h96.76v-20.7h-69.56v-178.48h-27.21v199.17Z"/>
    </g>
    <g>
      <path class="cls-1" d="M976.61,1281.77v60.38h71.04v27.52h-71.04v63.04h79.91v27.53h-113.66v-206h113.66v27.53h-79.91Z"/>
      <path class="cls-1" d="M1059.79,1463.51h-120.19v-212.54h120.19v34.06h-79.91v53.85h71.04v34.06h-71.04v56.51h79.91v34.06ZM946.14,1456.98h107.12v-20.99h-79.91v-69.58h71.04v-20.99h-71.04v-66.92h79.91v-20.99h-107.12v199.47Z"/>
    </g>
    <g>
      <path class="cls-1" d="M1159.41,1455.06c-11.05-4.83-19.73-11.69-26.05-20.57-6.32-8.88-9.47-19.24-9.47-31.08h36.11c.79,8.88,4.29,16.18,10.51,21.9,6.21,5.72,14.95,8.58,26.19,8.58s20.72-2.81,27.23-8.43c6.51-5.62,9.77-12.87,9.77-21.75,0-6.9-2.03-12.53-6.07-16.87-4.05-4.34-9.08-7.69-15.09-10.06-6.02-2.37-14.36-4.93-25.01-7.7-13.42-3.55-24.32-7.15-32.7-10.8-8.39-3.65-15.54-9.33-21.46-17.02-5.92-7.7-8.88-17.95-8.88-30.78,0-11.84,2.96-22.2,8.88-31.08,5.92-8.88,14.21-15.68,24.86-20.42,10.66-4.74,22.99-7.11,37-7.11,19.93,0,36.26,4.99,48.98,14.95,12.73,9.96,19.78,23.63,21.16,40.99h-37.29c-.59-7.5-4.14-13.91-10.65-19.24-6.51-5.33-15.1-7.99-25.75-7.99-9.67,0-17.57,2.47-23.68,7.4-6.12,4.93-9.18,12.04-9.18,21.31,0,6.31,1.92,11.5,5.77,15.54,3.85,4.05,8.73,7.25,14.65,9.62,5.92,2.36,14.01,4.93,24.27,7.7,13.62,3.75,24.72,7.5,33.3,11.24,8.58,3.75,15.88,9.52,21.9,17.31,6.02,7.8,9.03,18.21,9.03,31.23,0,10.46-2.81,20.33-8.43,29.59-5.62,9.28-13.81,16.72-24.57,22.35-10.76,5.62-23.43,8.43-38.03,8.43-13.81,0-26.25-2.41-37.29-7.25Z"/>
      <path class="cls-1" d="M1196.71,1465.58c-14.21,0-27.2-2.53-38.61-7.53-11.55-5.05-20.77-12.34-27.4-21.67-6.69-9.4-10.08-20.49-10.08-32.97v-3.27h42.37l.26,2.98c.72,8.12,3.82,14.59,9.47,19.79,5.56,5.12,13.63,7.72,23.98,7.72s19.23-2.57,25.1-7.64c5.81-5.02,8.64-11.33,8.64-19.28,0-6.1-1.7-10.89-5.19-14.65-3.69-3.96-8.37-7.07-13.9-9.25-5.85-2.3-14.14-4.85-24.64-7.57-13.56-3.59-24.72-7.28-33.19-10.97-8.85-3.85-16.51-9.91-22.74-18.02-6.34-8.24-9.56-19.27-9.56-32.77,0-12.44,3.17-23.51,9.43-32.89,6.24-9.36,15.07-16.62,26.25-21.6,11.03-4.9,23.92-7.39,38.33-7.39,20.58,0,37.74,5.26,51,15.64,13.42,10.5,20.95,25.07,22.41,43.31l.28,3.53h-43.85l-.24-3.01c-.52-6.63-3.62-12.18-9.47-16.97-5.88-4.81-13.85-7.25-23.68-7.25-8.86,0-16.14,2.25-21.63,6.68-5.36,4.32-7.96,10.46-7.96,18.77,0,5.5,1.59,9.84,4.87,13.28,3.51,3.69,8.05,6.66,13.5,8.84,5.81,2.32,13.85,4.87,23.91,7.57,13.71,3.78,25.06,7.61,33.75,11.4,9.05,3.95,16.85,10.11,23.18,18.31,6.44,8.35,9.71,19.53,9.71,33.23,0,11.02-3,21.54-8.91,31.29-5.91,9.75-14.6,17.67-25.85,23.55-11.18,5.84-24.48,8.81-39.55,8.81ZM1127.25,1406.68c.53,9.76,3.48,18.47,8.78,25.92,5.94,8.35,14.24,14.9,24.69,19.47h0c10.57,4.63,22.68,6.98,35.98,6.98,14,0,26.29-2.71,36.52-8.06,10.17-5.32,18.01-12.43,23.29-21.15,5.28-8.71,7.96-18.1,7.96-27.9,0-12.22-2.81-22.05-8.35-29.23-5.66-7.32-12.6-12.81-20.62-16.31-8.41-3.67-19.46-7.4-32.86-11.09-10.28-2.77-18.57-5.4-24.61-7.81-6.33-2.53-11.65-6.04-15.81-10.41-4.43-4.65-6.67-10.63-6.67-17.79,0-10.27,3.5-18.3,10.39-23.86,6.68-5.39,15.34-8.12,25.73-8.12,11.38,0,20.74,2.94,27.82,8.73,6.32,5.17,10.16,11.38,11.45,18.5h30.8c-1.92-14.85-8.34-26.37-19.55-35.15-12.08-9.46-27.89-14.26-46.97-14.26-13.48,0-25.48,2.3-35.67,6.82-10.03,4.46-17.93,10.94-23.47,19.25-5.53,8.29-8.33,18.14-8.33,29.27,0,12.03,2.76,21.71,8.2,28.79,5.56,7.22,12.34,12.61,20.17,16.02,8.17,3.56,19.02,7.14,32.24,10.64,10.74,2.79,19.28,5.42,25.37,7.81,6.44,2.54,11.92,6.19,16.29,10.87,4.61,4.96,6.95,11.38,6.95,19.1,0,9.83-3.67,17.98-10.9,24.23-7.09,6.12-16.97,9.23-29.37,9.23s-21.6-3.18-28.41-9.45c-6.09-5.61-9.85-12.68-11.18-21.04h-29.87Z"/>
    </g>
    <g>
      <path class="cls-1" d="M1349.88,1281.77v60.38h71.04v27.52h-71.04v63.04h79.91v27.53h-113.66v-206h113.66v27.53h-79.91Z"/>
      <path class="cls-1" d="M1433.06,1463.51h-120.19v-212.54h120.19v34.06h-79.91v53.85h71.04v34.06h-71.04v56.51h79.91v34.06ZM1319.41,1456.98h107.12v-20.99h-79.91v-69.58h71.04v-20.99h-71.04v-66.92h79.91v-20.99h-107.12v199.47Z"/>
    </g>
    <g>
      <path class="cls-1" d="M1530.33,1281.77v60.38h71.04v27.52h-71.04v63.04h79.91v27.53h-113.66v-206h113.66v27.53h-79.91Z"/>
      <path class="cls-1" d="M1613.51,1463.51h-120.19v-212.54h120.19v34.06h-79.91v53.85h71.04v34.06h-71.04v56.51h79.91v34.06ZM1499.86,1456.98h107.12v-20.99h-79.91v-69.58h71.04v-20.99h-71.04v-66.92h79.91v-20.99h-107.12v199.47Z"/>
    </g>
    <g>
      <path class="cls-1" d="M1793.35,1267.11c16.47,8.39,29.2,20.43,38.18,36.11,8.98,15.69,13.47,33.99,13.47,54.91s-4.49,39.07-13.47,54.46c-8.98,15.39-21.71,27.18-38.18,35.37-16.48,8.19-35.67,12.28-57.57,12.28h-67.19v-205.71h67.19c21.9,0,41.09,4.2,57.57,12.58ZM1791.13,1413.18c12.82-13.02,19.24-31.37,19.24-55.05s-6.42-42.52-19.24-55.94c-12.83-13.42-31.28-20.12-55.35-20.12h-33.45v150.65h33.45c24.07,0,42.52-6.51,55.35-19.53Z"/>
      <path class="cls-1" d="M1735.78,1463.51h-70.46v-212.24h70.46c22.31,0,42.18,4.35,59.05,12.93h0c16.97,8.64,30.27,21.23,39.53,37.4,9.22,16.12,13.9,35.14,13.9,56.53s-4.68,40.28-13.91,56.11c-9.27,15.88-22.58,28.21-39.55,36.65-16.86,8.38-36.71,12.63-59.02,12.63ZM1671.86,1456.98h63.92c21.29,0,40.17-4.02,56.11-11.94,15.81-7.86,28.2-19.33,36.81-34.09,8.64-14.81,13.02-32.58,13.02-52.81s-4.39-38.17-13.04-53.28c-8.62-15.05-21.01-26.76-36.83-34.82-15.94-8.11-34.81-12.22-56.09-12.22h-63.92v199.17ZM1735.78,1435.98h-36.71v-157.19h36.71c24.88,0,44.3,7.11,57.71,21.13,13.37,13.99,20.14,33.57,20.14,58.2s-6.79,43.75-20.18,57.34h0c-13.4,13.61-32.81,20.51-57.67,20.51ZM1705.6,1429.45h30.18c23.05,0,40.89-6.25,53.02-18.56h0c12.14-12.33,18.3-30.08,18.3-52.76s-6.17-40.95-18.33-53.69c-12.13-12.68-29.95-19.11-52.99-19.11h-30.18v144.12Z"/>
    </g>
  </g>
  <g>
    <path class="cls-1" d="M641.54,1539.65v189.93h-24.97v-141.62l-63.13,141.62h-17.57l-63.4-141.9v141.9h-24.97v-189.93h26.89l70.26,157,70.26-157h26.62Z"/>
    <path class="cls-1" d="M708.78,1558.59v63.95h69.71v20.58h-69.71v65.87h77.95v20.59h-102.92v-191.58h102.92v20.59h-77.95Z"/>
    <path class="cls-1" d="M938.36,1549.95c15.28,7.78,26.99,18.9,35.13,33.35,8.14,14.45,12.21,31.47,12.21,51.05s-4.07,36.55-12.21,50.91c-8.14,14.37-19.85,25.35-35.13,32.94-15.28,7.59-33.34,11.39-54.21,11.39h-59.55v-191.31h59.55c20.86,0,38.93,3.89,54.21,11.67ZM940.7,1689.38c12.99-13.08,19.49-31.42,19.49-55.03s-6.55-42.36-19.63-55.71c-13.08-13.36-31.88-20.04-56.4-20.04h-34.58v150.41h34.58c24.7,0,43.55-6.53,56.54-19.62Z"/>
    <path class="cls-1" d="M1043.62,1538.28v191.31h-24.97v-191.31h24.97Z"/>
    <path class="cls-1" d="M1089.45,1583.43c8.41-14.91,19.9-26.57,34.44-34.99,14.55-8.42,30.7-12.63,48.44-12.63,20.86,0,39.06,5.04,54.62,15.1,15.55,10.06,26.9,24.33,34.03,42.82h-29.92c-5.31-11.53-12.95-20.4-22.92-26.62-9.97-6.22-21.91-9.33-35.82-9.33s-25.34,3.11-35.95,9.33c-10.61,6.22-18.93,15.05-24.98,26.49-6.04,11.44-9.06,24.84-9.06,40.21s3.02,28.5,9.06,39.94c6.04,11.44,14.37,20.27,24.98,26.48,10.61,6.22,22.6,9.33,35.95,9.33s25.85-3.06,35.82-9.19c9.97-6.13,17.61-14.96,22.92-26.49h29.92c-7.13,18.3-18.49,32.44-34.03,42.41-15.56,9.97-33.76,14.96-54.62,14.96-17.75,0-33.89-4.16-48.44-12.49-14.54-8.32-26.03-19.9-34.44-34.72-8.42-14.82-12.63-31.56-12.63-50.23s4.21-35.45,12.63-50.36Z"/>
    <path class="cls-1" d="M1411.13,1687.05h-83.44l-15.37,42.54h-26.35l69.17-190.21h28.82l68.89,190.21h-26.35l-15.37-42.54ZM1403.99,1666.73l-34.58-96.61-34.58,96.61h69.17Z"/>
    <path class="cls-1" d="M1508.01,1709.27h66.97v20.31h-91.94v-191.31h24.97v170.99Z"/>
  </g>
</svg>