<?xml version="1.0" encoding="UTF-8"?>
<svg id="Capa_2" data-name="Capa 2" xmlns="http://www.w3.org/2000/svg" viewBox="0 0 2000 2000">
  <defs>
    <style>
      .cls-1 {
        fill: #4aa3d3;
      }
    </style>
  </defs>
  <path class="cls-1" d="M1442.52,653.49c-135.94-49.44-279.06-9.66-403.71,52.28,4.34-24.91-7.97-81.22,3.68-100.52,4.18-6.92,76.77-34.71,94.15-44.87,131.67-76.97,239.1-203.65,234.28-364.37-188.51,8.63-326.25,170.39-359.14,347.56-17.41-40.25-20.54-83.38-36.64-125.56-54.4-142.55-196.28-263.47-353.45-260.52,24.57,207.69,115.69,316.61,294.47,412.16,11.18,5.97,51.54,17.92,53.1,20.3,5.76,8.78-4.26,96.09,0,115.86-115.7-55.16-219.64-89.49-349.28-67.36-341.29,58.26-319.67,467.45-222.46,720.19,67.22,174.77,312.11,559.25,540.77,470.91,18.9-7.3,45.18-34.63,64.47-32.94,12.28,1.08,48.57,25.02,68.6,31.3,262.67,82.39,494.97-323.41,556.43-529.22,64.32-215.37,68.68-552.86-185.28-645.21ZM1552.07,1307.95c-53.37,160.59-241.02,487.9-440.15,463.9-43.04-5.19-67.15-40.96-115.71-39.46-41.25,1.27-65.98,33.25-100.78,38.8-175.19,27.94-365.56-271.02-424.11-409.11-94.8-223.58-140.44-625.72,187.26-661.86,98.03-10.81,163.96,14.09,249.05,55.63,35.16,17.16,53.17,43.35,96.38,43.35,46.04,0,138.42-66.83,195.32-83.44,403.06-117.69,447.03,308.51,352.75,592.19Z"/>
  <path class="cls-1" d="M1191.29,985.28c98.98-9.44,59.87,181.05,34.19,235.51-39.94,84.7-117.28,179.86-161.39,35.11-26.09-85.62,25.97-260.97,127.2-270.62Z"/>
  <path class="cls-1" d="M781.86,985.22c106.49-21.65,167.08,171.8,155.83,256.74-26.83,202.64-159.9,7.66-187.04-81.99-13.12-43.34-28.92-162.53,31.2-174.75Z"/>
</svg>