<?xml version="1.0" encoding="UTF-8"?>
<svg id="Capa_2" data-name="Capa 2" xmlns="http://www.w3.org/2000/svg" viewBox="0 0 2000 565.35">
  <defs>
    <style>
      .cls-1 {
        fill: #4aa3d3;
      }

      .cls-2 {
        fill: #1d1d1b;
      }
    </style>
  </defs>
  <g>
    <g>
      <path class="cls-1" d="M696.48,349.33v131.38h-21.55v-89.98l-40.07,89.98h-14.93l-40.26-89.98v89.98h-21.55v-131.38h23.25l46.12,103.02,45.93-103.02h23.06Z"/>
      <path class="cls-1" d="M699.36,483.59h-27.31v-79.31l-35.32,79.31h-18.67l-35.52-79.37v79.37h-27.31v-137.14h28l44.25,98.84,44.07-98.84h27.81v137.14ZM677.81,477.83h15.79v-125.62h-18.31l-47.8,107.2-48-107.2h-18.5v125.62h15.79v-100.59l45.01,100.59h11.2l44.83-100.64v100.64Z"/>
    </g>
    <g>
      <path class="cls-1" d="M768.72,366.72v38.56h45.37v17.58h-45.37v40.26h51.04v17.58h-72.59v-131.57h72.59v17.58h-51.04Z"/>
      <path class="cls-1" d="M822.64,483.59h-78.35v-137.32h78.35v23.34h-51.04v32.8h45.37v23.34h-45.37v34.5h51.04v23.34ZM750.05,477.83h66.83v-11.82h-51.04v-46.02h45.37v-11.82h-45.37v-44.32h51.04v-11.82h-66.83v125.8Z"/>
    </g>
    <g>
      <path class="cls-1" d="M958.16,357.37c10.52,5.36,18.65,13.05,24.39,23.06,5.73,10.02,8.6,21.71,8.6,35.07s-2.87,24.95-8.6,34.78c-5.74,9.83-13.86,17.36-24.39,22.59-10.52,5.23-22.78,7.85-36.77,7.85h-42.91v-131.38h42.91c13.99,0,26.24,2.68,36.77,8.03ZM956.74,450.65c8.19-8.32,12.29-20.04,12.29-35.16s-4.1-27.16-12.29-35.73c-8.19-8.57-19.98-12.85-35.35-12.85h-21.36v96.21h21.36c15.37,0,27.16-4.16,35.35-12.48Z"/>
      <path class="cls-1" d="M921.39,483.59h-45.79v-137.14h45.79c14.38,0,27.18,2.81,38.07,8.35h0c10.98,5.59,19.58,13.73,25.58,24.2,5.96,10.42,8.98,22.7,8.98,36.5s-3.03,26-8.99,36.23c-6,10.28-14.61,18.26-25.59,23.72-10.87,5.4-23.68,8.15-38.05,8.15ZM881.36,477.83h40.03c13.47,0,25.41-2.54,35.48-7.54,9.96-4.95,17.76-12.17,23.18-21.46,5.45-9.34,8.21-20.55,8.21-33.33s-2.77-24.1-8.22-33.64c-5.43-9.47-13.23-16.85-23.19-21.93h0c-10.07-5.12-22-7.72-35.46-7.72h-40.03v125.62ZM921.39,466.01h-24.24v-101.98h24.24c16.12,0,28.71,4.62,37.43,13.74,8.68,9.09,13.09,21.78,13.09,37.72s-4.41,28.34-13.12,37.18h0c-8.72,8.85-21.3,13.34-37.4,13.34ZM902.91,460.25h18.48c14.5,0,25.7-3.91,33.3-11.62,7.6-7.72,11.46-18.87,11.46-33.14s-3.87-25.76-11.49-33.74c-7.59-7.94-18.78-11.96-33.27-11.96h-18.48v90.45Z"/>
    </g>
    <g>
      <path class="cls-1" d="M1058.87,349.33v131.38h-21.55v-131.38h21.55Z"/>
      <path class="cls-1" d="M1061.75,483.59h-27.31v-137.14h27.31v137.14ZM1040.2,477.83h15.79v-125.62h-15.79v125.62Z"/>
    </g>
    <g>
      <path class="cls-1" d="M1113.83,380.15c5.98-10.21,14.11-18.18,24.39-23.91,10.27-5.73,21.52-8.6,33.74-8.6,13.99,0,26.43,3.44,37.33,10.3,10.9,6.87,18.81,16.6,23.72,29.21h-25.9c-3.4-6.93-8.13-12.1-14.18-15.5-6.05-3.4-13.04-5.1-20.98-5.1-8.7,0-16.45,1.96-23.25,5.86-6.81,3.91-12.13,9.52-15.97,16.82-3.85,7.31-5.77,15.82-5.77,25.52s1.92,18.21,5.77,25.52c3.84,7.31,9.17,12.95,15.97,16.92,6.8,3.97,14.56,5.95,23.25,5.95,7.94,0,14.93-1.7,20.98-5.1,6.05-3.4,10.77-8.57,14.18-15.5h25.9c-4.91,12.6-12.82,22.31-23.72,29.11-10.9,6.8-23.35,10.21-37.33,10.21-12.35,0-23.63-2.86-33.84-8.6-10.21-5.73-18.31-13.71-24.29-23.91-5.99-10.21-8.98-21.74-8.98-34.59s2.99-24.39,8.98-34.59Z"/>
      <path class="cls-1" d="M1171.96,484.72c-12.8,0-24.66-3.02-35.25-8.97-10.61-5.96-19.14-14.36-25.36-24.97-6.22-10.6-9.37-22.73-9.37-36.05s3.15-25.44,9.37-36.05c6.22-10.61,14.78-19.01,25.47-24.97,10.66-5.95,22.48-8.97,35.15-8.97,14.47,0,27.55,3.62,38.87,10.75,11.38,7.17,19.75,17.47,24.87,30.6l1.53,3.93h-31.91l-.79-1.61c-3.13-6.37-7.5-11.17-13.01-14.26-5.58-3.14-12.17-4.73-19.57-4.73-8.14,0-15.48,1.84-21.82,5.48-6.29,3.61-11.29,8.88-14.86,15.67-3.61,6.86-5.44,14.99-5.44,24.18s1.83,17.33,5.44,24.18c3.57,6.79,8.57,12.1,14.88,15.77,6.33,3.69,13.66,5.56,21.8,5.56,7.4,0,13.99-1.59,19.57-4.73,5.5-3.1,9.88-7.89,13.01-14.26l.79-1.61h31.91l-1.53,3.93c-5.12,13.13-13.49,23.4-24.88,30.51-11.31,7.06-24.39,10.64-38.86,10.64ZM1171.96,350.51c-11.67,0-22.55,2.77-32.34,8.24-9.77,5.46-17.61,13.15-23.3,22.85h0c-5.69,9.71-8.58,20.86-8.58,33.14s2.89,23.43,8.58,33.14c5.7,9.71,13.51,17.41,23.22,22.86,9.72,5.46,20.63,8.23,32.43,8.23,13.37,0,25.42-3.29,35.81-9.77,9.15-5.72,16.17-13.7,20.89-23.79h-19.78c-3.59,6.64-8.47,11.72-14.52,15.13-6.45,3.63-13.99,5.47-22.39,5.47-9.17,0-17.48-2.13-24.7-6.35-7.25-4.23-12.99-10.31-17.07-18.07-4.05-7.69-6.1-16.72-6.1-26.86s2.05-19.17,6.1-26.86c4.08-7.77,9.83-13.82,17.09-17.98,7.22-4.14,15.52-6.24,24.68-6.24,8.4,0,15.94,1.84,22.39,5.47,6.05,3.4,10.93,8.49,14.52,15.13h19.78c-4.72-10.09-11.74-18.12-20.9-23.89-10.38-6.54-22.43-9.86-35.8-9.86Z"/>
    </g>
    <g>
      <path class="cls-1" d="M1329.91,453.87h-55.01l-9.45,26.84h-22.49l47.07-131.57h24.95l47.07,131.57h-22.68l-9.45-26.84ZM1323.87,436.29l-21.36-61.06-21.55,61.06h42.91Z"/>
      <path class="cls-1" d="M1366.14,483.59h-28.81l-9.45-26.84h-50.93l-9.45,26.84h-28.62l49.13-137.32h29.01l49.13,137.32ZM1341.41,477.83h16.56l-45.01-125.8h-20.9l-45.01,125.8h16.37l9.45-26.84h59.09l9.45,26.84ZM1327.92,439.17h-51.04l25.63-72.62,25.41,72.62ZM1285.03,433.41h34.78l-17.31-49.49-17.47,49.49Z"/>
    </g>
    <g>
      <path class="cls-1" d="M1423.86,463.32h44.42v17.39h-65.97v-131.38h21.55v113.98Z"/>
      <path class="cls-1" d="M1471.17,483.59h-71.73v-137.14h27.31v113.99h44.42v23.15ZM1405.2,477.83h60.21v-11.63h-44.42v-113.99h-15.79v125.62Z"/>
    </g>
  </g>
  <g>
    <g>
      <path class="cls-2" d="M383.09,228.52h-75.1l-12.9,36.65h-30.71l64.26-179.63h34.07l64.27,179.63h-30.97l-12.9-36.65ZM374.83,204.52l-29.16-83.36-29.42,83.36h58.59Z"/>
      <path class="cls-2" d="M431.01,268.02h-37.03l-12.91-36.65h-71.07l-12.9,36.65h-36.77l66.3-185.33h38.08l66.3,185.33ZM398.01,262.32h24.91l-62.23-173.93h-30.05l-62.22,173.93h24.65l12.9-36.65h79.14l12.91,36.65ZM378.85,207.37h-66.63l33.46-94.8,33.17,94.8ZM320.27,201.67h50.55l-25.16-71.92-25.38,71.92Z"/>
    </g>
    <g>
      <path class="cls-2" d="M588.54,165.03c-4.3,8.09-11.19,14.67-20.65,19.74-9.47,5.08-21.6,7.61-36.39,7.61h-32.52v72.78h-29.42V85.8h61.94c13.76,0,25.42,2.37,34.97,7.1,9.55,4.73,16.69,11.14,21.42,19.23,4.73,8.09,7.1,17.12,7.1,27.1,0,9.12-2.15,17.72-6.45,25.81ZM556.54,160.77c5.5-5.07,8.26-12.26,8.26-21.55,0-19.62-11.1-29.42-33.29-29.42h-32.52v58.59h32.52c11.18,0,19.53-2.54,25.03-7.61Z"/>
      <path class="cls-2" d="M501.84,268.02h-35.12V82.95h64.79c14.14,0,26.33,2.49,36.24,7.4,10.01,4.96,17.62,11.8,22.61,20.34,4.97,8.5,7.49,18.1,7.49,28.54,0,9.54-2.28,18.68-6.79,27.15h0c-4.55,8.56-11.89,15.6-21.82,20.92-9.84,5.28-22.54,7.95-37.74,7.95h-29.67v72.78ZM472.41,262.32h23.73v-72.78h35.37c14.25,0,26.04-2.45,35.04-7.28,8.91-4.78,15.46-11.02,19.48-18.57h0c4.06-7.64,6.12-15.87,6.12-24.47,0-9.41-2.26-18.05-6.71-25.66-4.43-7.56-11.23-13.65-20.23-18.11-9.11-4.51-20.45-6.8-33.71-6.8h-59.09v173.68ZM531.51,171.24h-35.37v-64.28h35.37c29.87,0,36.14,17.55,36.14,32.27,0,10.08-3.09,18.03-9.18,23.64-6.03,5.55-15.1,8.37-26.96,8.37ZM501.84,165.54h29.67c10.39,0,18.16-2.31,23.1-6.86h0c4.94-4.55,7.34-10.91,7.34-19.45,0-18.13-9.67-26.57-30.44-26.57h-29.67v52.89Z"/>
    </g>
    <g>
      <path class="cls-2" d="M756.83,165.03c-4.3,8.09-11.19,14.67-20.65,19.74-9.47,5.08-21.6,7.61-36.39,7.61h-32.52v72.78h-29.42V85.8h61.94c13.76,0,25.42,2.37,34.97,7.1,9.55,4.73,16.69,11.14,21.42,19.23,4.73,8.09,7.1,17.12,7.1,27.1,0,9.12-2.15,17.72-6.45,25.81ZM724.83,160.77c5.5-5.07,8.26-12.26,8.26-21.55,0-19.62-11.1-29.42-33.29-29.42h-32.52v58.59h32.52c11.18,0,19.53-2.54,25.03-7.61Z"/>
      <path class="cls-2" d="M670.12,268.02h-35.12V82.95h64.79c14.14,0,26.33,2.49,36.24,7.4,10.01,4.96,17.62,11.8,22.61,20.34,4.97,8.5,7.49,18.1,7.49,28.54,0,9.54-2.28,18.68-6.79,27.15h0c-4.55,8.56-11.89,15.6-21.82,20.92-9.84,5.28-22.54,7.95-37.74,7.95h-29.67v72.78ZM640.7,262.32h23.73v-72.78h35.37c14.25,0,26.04-2.45,35.04-7.28,8.91-4.78,15.46-11.02,19.48-18.57,4.06-7.64,6.12-15.87,6.12-24.47,0-9.41-2.26-18.05-6.71-25.66-4.43-7.56-11.23-13.65-20.23-18.11-9.11-4.51-20.45-6.8-33.71-6.8h-59.09v173.68ZM699.8,171.24h-35.37v-64.28h35.37c29.87,0,36.14,17.55,36.14,32.27,0,10.08-3.09,18.03-9.18,23.64-6.03,5.55-15.1,8.37-26.96,8.37ZM670.12,165.54h29.67c10.39,0,18.16-2.31,23.1-6.86h0c4.94-4.55,7.34-10.91,7.34-19.45,0-18.13-9.67-26.57-30.44-26.57h-29.67v52.89Z"/>
    </g>
    <g>
      <path class="cls-2" d="M833.11,241.43h60.65v23.74h-90.07V85.8h29.42v155.63Z"/>
      <path class="cls-2" d="M896.61,268.02h-95.77V82.95h35.12v155.63h60.65v29.44ZM806.53,262.32h84.38v-18.05h-60.65V88.65h-23.73v173.68Z"/>
    </g>
    <g>
      <path class="cls-2" d="M979.61,109.54v52.65h61.94v24h-61.94v54.97h69.68v24h-99.11V85.54h99.11v24h-69.68Z"/>
      <path class="cls-2" d="M1052.14,268.02h-104.8V82.69h104.8v29.7h-69.68v46.96h61.94v29.7h-61.94v49.28h69.68v29.7ZM953.03,262.32h93.41v-18.31h-69.68v-60.67h61.94v-18.3h-61.94v-58.35h69.68v-18.31h-93.41v173.93Z"/>
    </g>
    <g>
      <path class="cls-2" d="M1139,260.66c-9.64-4.21-17.21-10.19-22.71-17.94-5.51-7.74-8.26-16.78-8.26-27.1h31.49c.69,7.74,3.74,14.11,9.16,19.1,5.42,4.99,13.03,7.48,22.84,7.48s18.07-2.45,23.74-7.35c5.68-4.9,8.52-11.23,8.52-18.97,0-6.02-1.77-10.93-5.29-14.71-3.53-3.78-7.92-6.71-13.16-8.77-5.25-2.07-12.52-4.3-21.81-6.71-11.7-3.1-21.21-6.23-28.52-9.42-7.32-3.18-13.55-8.13-18.71-14.84-5.16-6.71-7.74-15.65-7.74-26.84,0-10.32,2.58-19.36,7.74-27.1,5.16-7.74,12.39-13.68,21.68-17.81,9.29-4.13,20.04-6.2,32.26-6.2,17.38,0,31.62,4.35,42.71,13.04,11.1,8.69,17.25,20.6,18.45,35.74h-32.52c-.52-6.54-3.61-12.13-9.29-16.77-5.68-4.65-13.16-6.97-22.45-6.97-8.43,0-15.32,2.15-20.65,6.45-5.33,4.3-8,10.5-8,18.58,0,5.51,1.68,10.03,5.03,13.55,3.36,3.53,7.61,6.33,12.78,8.39,5.16,2.06,12.22,4.3,21.16,6.71,11.87,3.27,21.55,6.54,29.04,9.81,7.48,3.27,13.85,8.3,19.1,15.1,5.25,6.8,7.87,15.88,7.87,27.23,0,9.12-2.45,17.72-7.35,25.81-4.9,8.09-12.05,14.58-21.42,19.49-9.38,4.9-20.43,7.35-33.16,7.35-12.05,0-22.89-2.1-32.52-6.32Z"/>
      <path class="cls-2" d="M1171.52,269.83c-12.39,0-23.72-2.21-33.66-6.56-10.07-4.4-18.11-10.76-23.89-18.9-5.83-8.2-8.79-17.87-8.79-28.75v-2.85h36.94l.23,2.6c.63,7.08,3.33,12.72,8.25,17.25,4.85,4.47,11.88,6.73,20.91,6.73s16.76-2.24,21.88-6.66c5.07-4.38,7.53-9.88,7.53-16.81,0-5.32-1.48-9.5-4.53-12.77-3.22-3.45-7.3-6.16-12.12-8.06-5.1-2.01-12.33-4.23-21.48-6.6-11.82-3.13-21.55-6.35-28.94-9.57-7.72-3.36-14.39-8.65-19.83-15.72-5.53-7.19-8.33-16.8-8.33-28.58,0-10.85,2.77-20.5,8.22-28.68,5.44-8.16,13.14-14.49,22.89-18.83,9.62-4.27,20.86-6.44,33.42-6.44,17.95,0,32.91,4.59,44.47,13.64,11.7,9.16,18.27,21.86,19.54,37.76l.24,3.07h-38.24l-.21-2.62c-.46-5.78-3.16-10.62-8.25-14.79-5.13-4.2-12.08-6.33-20.65-6.33-7.72,0-14.07,1.96-18.86,5.82-4.67,3.77-6.94,9.12-6.94,16.37,0,4.79,1.39,8.58,4.25,11.58,3.06,3.21,7.02,5.81,11.77,7.71,5.06,2.02,12.08,4.25,20.85,6.61,11.96,3.29,21.85,6.64,29.43,9.94,7.89,3.45,14.69,8.82,20.21,15.97,5.62,7.29,8.47,17.03,8.47,28.97,0,9.61-2.61,18.79-7.77,27.28-5.15,8.5-12.73,15.41-22.54,20.53-9.75,5.1-21.35,7.68-34.48,7.68ZM1110.96,218.47c.46,8.51,3.03,16.11,7.66,22.6,5.18,7.28,12.42,12.99,21.53,16.98h0c9.22,4.04,19.77,6.08,31.38,6.08,12.21,0,22.92-2.37,31.84-7.03,8.87-4.64,15.7-10.84,20.31-18.44,4.61-7.59,6.94-15.78,6.94-24.33,0-10.65-2.45-19.23-7.28-25.49-4.93-6.38-10.98-11.17-17.98-14.23-7.33-3.2-16.97-6.45-28.65-9.67-8.96-2.41-16.19-4.71-21.46-6.81-5.52-2.21-10.16-5.26-13.78-9.07-3.86-4.05-5.82-9.27-5.82-15.51,0-8.95,3.05-15.95,9.06-20.8,5.83-4.7,13.38-7.08,22.44-7.08,9.92,0,18.08,2.56,24.26,7.61,5.51,4.51,8.86,9.93,9.99,16.13h26.86c-1.67-12.95-7.27-23-17.05-30.65-10.54-8.25-24.32-12.43-40.96-12.43-11.76,0-22.22,2-31.1,5.95-8.75,3.89-15.64,9.54-20.47,16.78-4.82,7.23-7.27,15.82-7.27,25.52,0,10.49,2.41,18.93,7.15,25.1,4.84,6.3,10.76,11,17.59,13.97,7.12,3.1,16.58,6.23,28.11,9.28,9.37,2.43,16.81,4.72,22.12,6.81,5.62,2.21,10.39,5.4,14.2,9.48,4.02,4.32,6.06,9.93,6.06,16.66,0,8.57-3.2,15.68-9.5,21.13-6.18,5.34-14.8,8.05-25.61,8.05s-18.84-2.77-24.77-8.24c-5.31-4.89-8.59-11.05-9.75-18.35h-26.04Z"/>
    </g>
    <g>
      <path class="cls-2" d="M1305.09,109.54v52.65h61.94v24h-61.94v54.97h69.68v24h-99.11V85.54h99.11v24h-69.68Z"/>
      <path class="cls-2" d="M1377.62,268.02h-104.8V82.69h104.8v29.7h-69.68v46.96h61.94v29.7h-61.94v49.28h69.68v29.7ZM1278.52,262.32h93.41v-18.31h-69.68v-60.67h61.94v-18.3h-61.94v-58.35h69.68v-18.31h-93.41v173.93Z"/>
    </g>
    <g>
      <path class="cls-2" d="M1462.44,109.54v52.65h61.94v24h-61.94v54.97h69.68v24h-99.11V85.54h99.11v24h-69.68Z"/>
      <path class="cls-2" d="M1534.97,268.02h-104.8V82.69h104.8v29.7h-69.68v46.96h61.94v29.7h-61.94v49.28h69.68v29.7ZM1435.87,262.32h93.41v-18.31h-69.68v-60.67h61.94v-18.3h-61.94v-58.35h69.68v-18.31h-93.41v173.93Z"/>
    </g>
    <g>
      <path class="cls-2" d="M1691.79,96.77c14.36,7.32,25.46,17.81,33.29,31.49,7.83,13.68,11.74,29.64,11.74,47.88s-3.92,34.07-11.74,47.49c-7.83,13.42-18.93,23.7-33.29,30.84-14.37,7.14-31.1,10.71-50.2,10.71h-58.59V85.8h58.59c19.1,0,35.83,3.66,50.2,10.97ZM1689.85,224.13c11.18-11.36,16.78-27.36,16.78-48s-5.59-37.08-16.78-48.78c-11.19-11.7-27.27-17.55-48.26-17.55h-29.16v131.37h29.16c20.99,0,37.08-5.68,48.26-17.03Z"/>
      <path class="cls-2" d="M1641.59,268.02h-61.44V82.95h61.44c19.46,0,36.78,3.79,51.49,11.28h0c14.8,7.54,26.4,18.51,34.47,32.61,8.04,14.06,12.12,30.64,12.12,49.29s-4.08,35.12-12.13,48.92c-8.08,13.85-19.69,24.6-34.49,31.96-14.7,7.3-32.01,11.01-51.47,11.01ZM1585.85,262.32h55.74c18.56,0,35.03-3.5,48.93-10.41,13.79-6.85,24.59-16.85,32.1-29.73,7.53-12.92,11.35-28.41,11.35-46.05s-3.82-33.28-11.37-46.46c-7.52-13.12-18.32-23.34-32.11-30.36-13.9-7.07-30.35-10.66-48.91-10.66h-55.74v173.68ZM1641.59,244.02h-32.01V106.95h32.01c21.7,0,38.63,6.2,50.32,18.43,11.66,12.2,17.57,29.27,17.57,50.75s-5.92,38.15-17.6,50h0c-11.69,11.87-28.61,17.88-50.29,17.88ZM1615.27,238.32h26.32c20.1,0,35.65-5.45,46.23-16.18h0c10.59-10.75,15.96-26.23,15.96-46s-5.38-35.71-15.99-46.81c-10.57-11.06-26.12-16.67-46.2-16.67h-26.32v125.67Z"/>
    </g>
  </g>
</svg>