<?xml version="1.0" encoding="UTF-8"?>
<svg id="Capa_2" data-name="Capa 2" xmlns="http://www.w3.org/2000/svg" viewBox="0 0 2000 565.35">
  <defs>
    <style>
      .cls-1 {
        fill: #fff;
      }
    </style>
  </defs>
  <g>
    <path class="cls-1" d="M561.77,191.18c-33.15-12.06-68.06-2.36-98.46,12.75,1.06-6.07-1.94-19.81.9-24.51,1.02-1.69,18.72-8.47,22.96-10.94,32.11-18.77,58.31-49.67,57.14-88.87-45.97,2.1-79.57,41.56-87.59,84.77-4.25-9.82-5.01-20.33-8.94-30.62-13.27-34.77-47.87-64.26-86.2-63.54,5.99,50.65,28.21,77.22,71.82,100.52,2.73,1.46,12.57,4.37,12.95,4.95,1.4,2.14-1.04,23.43,0,28.26-28.22-13.45-53.57-21.82-85.18-16.43-83.24,14.21-77.96,114.01-54.25,175.65,16.39,42.62,76.12,136.39,131.89,114.85,4.61-1.78,11.02-8.44,15.72-8.03,3,.26,11.85,6.1,16.73,7.63,64.06,20.09,120.72-78.88,135.71-129.07,15.69-52.53,16.75-134.83-45.19-157.36ZM588.49,350.79c-13.02,39.17-58.78,118.99-107.35,113.14-10.5-1.27-16.38-9.99-28.22-9.62-10.06.31-16.09,8.11-24.58,9.46-42.73,6.82-89.16-66.1-103.44-99.78-23.12-54.53-34.25-152.6,45.67-161.42,23.91-2.64,39.99,3.44,60.74,13.57,8.57,4.19,12.97,10.57,23.51,10.57,11.23,0,33.76-16.3,47.64-20.35,98.3-28.7,109.03,75.24,86.03,144.43Z"/>
    <path class="cls-1" d="M500.5,272.1c24.14-2.3,14.6,44.16,8.34,57.44-9.74,20.66-28.6,43.86-39.36,8.56-6.36-20.88,6.33-63.65,31.02-66Z"/>
    <path class="cls-1" d="M400.65,272.08c25.97-5.28,40.75,41.9,38.01,62.62-6.54,49.42-39,1.87-45.62-20-3.2-10.57-7.05-39.64,7.61-42.62Z"/>
  </g>
  <g>
    <g>
      <g>
        <path class="cls-1" d="M965.44,398.74v93.55h-15.35v-64.07l-28.54,64.07h-10.63l-28.67-64.07v64.07h-15.35v-93.55h16.56l32.84,73.36,32.71-73.36h16.42Z"/>
        <path class="cls-1" d="M967.49,494.34h-19.45v-56.48l-25.15,56.48h-13.3l-25.29-56.52v56.52h-19.45v-97.65h19.94l31.51,70.38,31.38-70.38h19.8v97.65ZM952.15,490.24h11.24v-89.45h-13.04l-34.04,76.34-34.18-76.34h-13.18v89.45h11.24v-71.63l32.05,71.63h7.97l31.92-71.67v71.67Z"/>
      </g>
      <g>
        <path class="cls-1" d="M1016.88,411.12v27.46h32.31v12.52h-32.31v28.67h36.34v12.52h-51.69v-93.69h51.69v12.52h-36.34Z"/>
        <path class="cls-1" d="M1055.28,494.34h-55.79v-97.79h55.79v16.62h-36.34v23.36h32.31v16.62h-32.31v24.57h36.34v16.62ZM1003.59,490.24h47.59v-8.42h-36.34v-32.77h32.31v-8.42h-32.31v-31.56h36.34v-8.42h-47.59v89.58Z"/>
      </g>
      <g>
        <path class="cls-1" d="M1151.78,404.46c7.49,3.82,13.28,9.29,17.36,16.42,4.08,7.13,6.12,15.46,6.12,24.97s-2.04,17.77-6.12,24.77c-4.09,7-9.87,12.36-17.36,16.08-7.49,3.72-16.22,5.59-26.18,5.59h-30.56v-93.55h30.56c9.96,0,18.69,1.91,26.18,5.72ZM1150.77,470.89c5.83-5.92,8.75-14.27,8.75-25.04s-2.92-19.34-8.75-25.44c-5.83-6.1-14.22-9.15-25.17-9.15h-15.21v68.51h15.21c10.95,0,19.34-2.96,25.17-8.88Z"/>
        <path class="cls-1" d="M1125.6,494.34h-32.61v-97.65h32.61c10.24,0,19.36,2,27.11,5.94h0c7.82,3.98,13.95,9.78,18.21,17.23,4.24,7.42,6.4,16.16,6.4,25.99s-2.15,18.51-6.4,25.8c-4.27,7.32-10.4,13-18.22,16.89-7.74,3.85-16.86,5.8-27.09,5.8ZM1097.09,490.24h28.51c9.59,0,18.1-1.81,25.27-5.37,7.09-3.52,12.64-8.67,16.51-15.28,3.88-6.65,5.84-14.64,5.84-23.73s-1.97-17.16-5.85-23.95c-3.86-6.75-9.42-12-16.51-15.61h0c-7.17-3.65-15.67-5.5-25.25-5.5h-28.51v89.45ZM1125.6,481.82h-17.26v-72.62h17.26c11.48,0,20.44,3.29,26.65,9.79,6.18,6.47,9.32,15.51,9.32,26.86s-3.14,20.18-9.34,26.47h0c-6.21,6.3-15.17,9.5-26.63,9.5ZM1112.44,477.72h13.16c10.33,0,18.3-2.78,23.71-8.27,5.41-5.5,8.16-13.44,8.16-23.6s-2.75-18.34-8.18-24.02c-5.41-5.65-13.38-8.52-23.69-8.52h-13.16v64.41Z"/>
      </g>
      <g>
        <path class="cls-1" d="M1223.5,398.74v93.55h-15.35v-93.55h15.35Z"/>
        <path class="cls-1" d="M1225.55,494.34h-19.45v-97.65h19.45v97.65ZM1210.2,490.24h11.24v-89.45h-11.24v89.45Z"/>
      </g>
      <g>
        <path class="cls-1" d="M1262.64,420.68c4.26-7.27,10.05-12.94,17.36-17.03,7.31-4.08,15.32-6.13,24.03-6.13,9.96,0,18.82,2.45,26.58,7.34,7.76,4.89,13.39,11.82,16.89,20.8h-18.44c-2.42-4.93-5.79-8.62-10.1-11.04-4.31-2.42-9.29-3.64-14.94-3.64-6.19,0-11.71,1.39-16.56,4.17-4.85,2.78-8.64,6.78-11.37,11.98-2.74,5.21-4.11,11.26-4.11,18.17s1.37,12.97,4.11,18.17c2.74,5.21,6.53,9.22,11.37,12.05,4.85,2.83,10.36,4.24,16.56,4.24,5.65,0,10.63-1.21,14.94-3.63,4.31-2.42,7.67-6.1,10.1-11.04h18.44c-3.5,8.98-9.13,15.88-16.89,20.73-7.76,4.85-16.62,7.27-26.58,7.27-8.8,0-16.83-2.04-24.09-6.12-7.27-4.08-13.04-9.76-17.3-17.03-4.26-7.27-6.39-15.48-6.39-24.63s2.13-17.36,6.39-24.63Z"/>
        <path class="cls-1" d="M1304.03,495.15c-9.11,0-17.56-2.15-25.1-6.39-7.56-4.24-13.63-10.22-18.06-17.78-4.43-7.55-6.68-16.19-6.68-25.67s2.25-18.12,6.68-25.67c4.43-7.55,10.53-13.53,18.13-17.78,7.59-4.24,16.01-6.39,25.03-6.39,10.31,0,19.62,2.58,27.68,7.65,8.11,5.11,14.06,12.44,17.71,21.79l1.09,2.8h-22.72l-.56-1.15c-2.23-4.54-5.34-7.95-9.26-10.16-3.98-2.24-8.67-3.37-13.93-3.37-5.8,0-11.02,1.31-15.54,3.9-4.48,2.57-8.04,6.32-10.58,11.16-2.57,4.88-3.87,10.67-3.87,17.22s1.3,12.34,3.87,17.22c2.54,4.84,6.11,8.62,10.59,11.23,4.5,2.63,9.73,3.96,15.52,3.96,5.27,0,9.96-1.13,13.93-3.37,3.92-2.21,7.04-5.62,9.26-10.16l.56-1.15h22.72l-1.09,2.8c-3.65,9.35-9.61,16.66-17.72,21.72-8.06,5.03-17.37,7.58-27.67,7.58ZM1304.03,399.58c-8.31,0-16.06,1.97-23.03,5.87-6.96,3.89-12.54,9.36-16.6,16.27h0c-4.06,6.92-6.11,14.85-6.11,23.6s2.06,16.68,6.11,23.6c4.06,6.92,9.62,12.39,16.53,16.28,6.92,3.89,14.69,5.86,23.09,5.86,9.52,0,18.1-2.34,25.5-6.96,6.52-4.07,11.51-9.76,14.87-16.94h-14.08c-2.55,4.73-6.03,8.35-10.34,10.78-4.6,2.59-9.96,3.9-15.95,3.9-6.53,0-12.45-1.52-17.59-4.52-5.16-3.01-9.25-7.34-12.16-12.87-2.88-5.47-4.34-11.91-4.34-19.13s1.46-13.65,4.34-19.13c2.91-5.53,7-9.84,12.17-12.8,5.14-2.95,11.05-4.45,17.58-4.45,5.98,0,11.35,1.31,15.95,3.9,4.31,2.42,7.79,6.05,10.34,10.78h14.08c-3.36-7.19-8.36-12.9-14.88-17.01-7.39-4.66-15.97-7.02-25.49-7.02Z"/>
      </g>
      <g>
        <path class="cls-1" d="M1416.51,473.18h-39.17l-6.73,19.11h-16.02l33.52-93.69h17.77l33.52,93.69h-16.15l-6.73-19.11ZM1412.2,460.66l-15.21-43.48-15.35,43.48h30.56Z"/>
        <path class="cls-1" d="M1442.3,494.34h-20.52l-6.73-19.11h-36.27l-6.73,19.11h-20.38l34.98-97.79h20.66l34.98,97.79ZM1424.69,490.24h11.79l-32.05-89.58h-14.88l-32.05,89.58h11.65l6.73-19.11h42.07l6.73,19.11ZM1415.09,462.71h-36.34l18.25-51.71,18.09,51.71ZM1384.54,458.61h24.77l-12.33-35.24-12.44,35.24Z"/>
      </g>
      <g>
        <path class="cls-1" d="M1483.41,479.91h31.63v12.38h-46.98v-93.55h15.35v81.17Z"/>
        <path class="cls-1" d="M1517.09,494.34h-51.08v-97.65h19.45v81.17h31.63v16.49ZM1470.11,490.24h42.88v-8.28h-31.63v-81.17h-11.24v89.45Z"/>
      </g>
    </g>
    <g>
      <g>
        <path class="cls-1" d="M742.28,312.71h-53.48l-9.19,26.1h-21.87l45.76-127.91h24.26l45.76,127.91h-22.05l-9.19-26.1ZM736.4,295.62l-20.77-59.36-20.95,59.36h41.72Z"/>
        <path class="cls-1" d="M776.4,340.84h-26.37l-9.19-26.1h-50.61l-9.19,26.1h-26.19l47.21-131.97h27.12l47.21,131.97ZM752.91,336.78h17.74l-44.31-123.86h-21.4l-44.31,123.86h17.55l9.19-26.1h56.35l9.19,26.1ZM739.26,297.65h-47.45l23.83-67.51,23.62,67.51ZM697.55,293.59h35.99l-17.92-51.21-18.08,51.21Z"/>
      </g>
      <g>
        <path class="cls-1" d="M888.58,267.5c-3.06,5.76-7.97,10.45-14.7,14.06-6.74,3.61-15.38,5.42-25.91,5.42h-23.16v51.83h-20.95v-127.73h44.11c9.8,0,18.1,1.69,24.9,5.06,6.8,3.37,11.88,7.93,15.25,13.69,3.37,5.76,5.05,12.19,5.05,19.3,0,6.5-1.53,12.62-4.6,18.38ZM865.79,264.47c3.92-3.61,5.88-8.73,5.88-15.35,0-13.97-7.9-20.95-23.71-20.95h-23.16v41.72h23.16c7.96,0,13.9-1.81,17.83-5.42Z"/>
        <path class="cls-1" d="M826.84,340.84h-25.01v-131.79h46.14c10.07,0,18.75,1.77,25.8,5.27,7.13,3.53,12.54,8.4,16.1,14.48,3.54,6.05,5.33,12.89,5.33,20.32,0,6.79-1.63,13.3-4.83,19.33h0c-3.24,6.1-8.47,11.11-15.54,14.89-7.01,3.76-16.05,5.66-26.87,5.66h-21.13v51.83ZM805.89,336.78h16.89v-51.83h25.19c10.15,0,18.54-1.74,24.95-5.18,6.34-3.4,11.01-7.85,13.87-13.22h0c2.89-5.44,4.36-11.3,4.36-17.43,0-6.7-1.61-12.85-4.78-18.27-3.15-5.38-8-9.72-14.4-12.9-6.49-3.21-14.56-4.84-24-4.84h-42.08v123.67ZM847.97,271.92h-25.19v-45.78h25.19c21.27,0,25.74,12.5,25.74,22.98,0,7.18-2.2,12.84-6.53,16.84-4.29,3.95-10.75,5.96-19.2,5.96ZM826.84,267.86h21.13c7.4,0,12.93-1.64,16.45-4.88h0c3.52-3.24,5.23-7.77,5.23-13.85,0-12.91-6.89-18.92-21.68-18.92h-21.13v37.66Z"/>
      </g>
      <g>
        <path class="cls-1" d="M1008.42,267.5c-3.06,5.76-7.97,10.45-14.7,14.06-6.74,3.61-15.38,5.42-25.91,5.42h-23.16v51.83h-20.95v-127.73h44.11c9.8,0,18.1,1.69,24.9,5.06,6.8,3.37,11.88,7.93,15.25,13.69,3.37,5.76,5.05,12.19,5.05,19.3,0,6.5-1.53,12.62-4.6,18.38ZM985.63,264.47c3.92-3.61,5.88-8.73,5.88-15.35,0-13.97-7.9-20.95-23.71-20.95h-23.16v41.72h23.16c7.96,0,13.9-1.81,17.83-5.42Z"/>
        <path class="cls-1" d="M946.67,340.84h-25.01v-131.79h46.14c10.07,0,18.75,1.77,25.8,5.27,7.13,3.53,12.54,8.4,16.1,14.48,3.54,6.05,5.33,12.89,5.33,20.32,0,6.8-1.63,13.3-4.83,19.33h0c-3.24,6.1-8.47,11.11-15.53,14.89-7.01,3.76-16.05,5.66-26.87,5.66h-21.13v51.83ZM925.72,336.78h16.89v-51.83h25.19c10.15,0,18.54-1.74,24.95-5.18,6.34-3.4,11.01-7.85,13.87-13.22,2.89-5.44,4.36-11.3,4.36-17.43,0-6.7-1.61-12.85-4.78-18.27-3.15-5.38-8-9.72-14.4-12.9-6.49-3.21-14.56-4.84-24-4.84h-42.08v123.67ZM967.8,271.92h-25.19v-45.78h25.19c21.27,0,25.74,12.5,25.74,22.98,0,7.18-2.2,12.84-6.53,16.84-4.29,3.95-10.75,5.96-19.2,5.96ZM946.67,267.86h21.13c7.4,0,12.93-1.64,16.45-4.88h0c3.52-3.24,5.23-7.77,5.23-13.85,0-12.91-6.89-18.92-21.68-18.92h-21.13v37.66Z"/>
      </g>
      <g>
        <path class="cls-1" d="M1062.73,321.9h43.19v16.91h-64.14v-127.73h20.95v110.82Z"/>
        <path class="cls-1" d="M1107.95,340.84h-68.2v-131.79h25.01v110.82h43.19v20.96ZM1043.81,336.78h60.08v-12.85h-43.19v-110.82h-16.89v123.67Z"/>
      </g>
      <g>
        <path class="cls-1" d="M1167.05,227.99v37.49h44.11v17.09h-44.11v39.15h49.62v17.09h-70.57v-127.91h70.57v17.09h-49.62Z"/>
        <path class="cls-1" d="M1218.7,340.84h-74.63v-131.97h74.63v21.15h-49.62v33.44h44.11v21.15h-44.11v35.09h49.62v21.15ZM1148.13,336.78h66.52v-13.04h-49.62v-43.2h44.11v-13.03h-44.11v-41.55h49.62v-13.04h-66.52v123.86Z"/>
      </g>
      <g>
        <path class="cls-1" d="M1280.56,335.59c-6.86-3-12.25-7.26-16.17-12.77-3.92-5.51-5.88-11.95-5.88-19.3h22.42c.49,5.51,2.66,10.05,6.52,13.6,3.86,3.55,9.28,5.33,16.27,5.33s12.87-1.74,16.91-5.24c4.04-3.49,6.06-7.99,6.06-13.51,0-4.29-1.26-7.78-3.77-10.48-2.51-2.69-5.64-4.78-9.37-6.25-3.74-1.47-8.91-3.06-15.53-4.78-8.33-2.21-15.1-4.44-20.31-6.71-5.21-2.27-9.65-5.79-13.32-10.57-3.68-4.78-5.51-11.15-5.51-19.11,0-7.35,1.84-13.78,5.51-19.3,3.68-5.51,8.82-9.74,15.44-12.68,6.62-2.94,14.27-4.41,22.97-4.41,12.37,0,22.51,3.1,30.42,9.28,7.9,6.19,12.28,14.67,13.14,25.45h-23.16c-.37-4.65-2.57-8.64-6.62-11.95s-9.37-4.96-15.99-4.96c-6,0-10.91,1.53-14.7,4.59-3.8,3.06-5.7,7.48-5.7,13.23,0,3.92,1.2,7.14,3.58,9.65,2.39,2.51,5.42,4.5,9.1,5.98,3.68,1.47,8.7,3.06,15.07,4.78,8.45,2.33,15.35,4.66,20.68,6.98,5.33,2.33,9.86,5.91,13.6,10.75,3.74,4.84,5.6,11.3,5.6,19.39,0,6.49-1.75,12.62-5.24,18.38-3.49,5.76-8.58,10.38-15.25,13.88-6.68,3.49-14.55,5.24-23.62,5.24-8.58,0-16.3-1.5-23.16-4.5Z"/>
        <path class="cls-1" d="M1303.72,342.12c-8.83,0-16.89-1.57-23.97-4.67-7.17-3.14-12.9-7.66-17.01-13.46-4.15-5.84-6.26-12.72-6.26-20.47v-2.03h26.31l.16,1.85c.45,5.04,2.37,9.06,5.88,12.29,3.45,3.18,8.46,4.79,14.89,4.79s11.94-1.6,15.58-4.74c3.61-3.12,5.36-7.03,5.36-11.97,0-3.79-1.05-6.76-3.22-9.1-2.29-2.46-5.2-4.39-8.63-5.74-3.63-1.43-8.78-3.01-15.3-4.7-8.42-2.23-15.35-4.52-20.61-6.81-5.5-2.39-10.25-6.16-14.12-11.19-3.94-5.12-5.93-11.97-5.93-20.35,0-7.72,1.97-14.6,5.85-20.42,3.87-5.81,9.36-10.32,16.3-13.41,6.85-3.04,14.85-4.59,23.8-4.59,12.78,0,23.43,3.27,31.67,9.71,8.33,6.52,13.01,15.57,13.91,26.89l.17,2.19h-27.23l-.15-1.87c-.33-4.12-2.25-7.56-5.88-10.53-3.65-2.99-8.6-4.5-14.7-4.5-5.5,0-10.02,1.39-13.43,4.15-3.33,2.68-4.94,6.49-4.94,11.65,0,3.41.99,6.11,3.02,8.25,2.18,2.29,5,4.14,8.38,5.49,3.61,1.44,8.6,3.02,14.84,4.7,8.51,2.35,15.56,4.73,20.96,7.08,5.62,2.45,10.46,6.28,14.39,11.37,4,5.19,6.03,12.13,6.03,20.63,0,6.84-1.86,13.38-5.53,19.43-3.67,6.05-9.07,10.97-16.05,14.62-6.94,3.63-15.2,5.47-24.56,5.47ZM1260.59,305.55c.33,6.06,2.16,11.47,5.45,16.09,3.69,5.18,8.84,9.25,15.33,12.09h0c6.56,2.87,14.08,4.33,22.34,4.33,8.69,0,16.32-1.68,22.68-5.01,6.31-3.3,11.18-7.72,14.46-13.13,3.28-5.41,4.94-11.24,4.94-17.32,0-7.59-1.74-13.69-5.18-18.15-3.51-4.54-7.82-7.95-12.81-10.13-5.22-2.28-12.08-4.59-20.4-6.89-6.38-1.72-11.53-3.35-15.28-4.85-3.93-1.57-7.23-3.75-9.81-6.46-2.75-2.88-4.14-6.6-4.14-11.05,0-6.38,2.17-11.36,6.45-14.81,4.15-3.35,9.53-5.04,15.98-5.04,7.07,0,12.88,1.82,17.27,5.42,3.92,3.21,6.31,7.07,7.11,11.49h19.13c-1.19-9.22-5.18-16.38-12.14-21.83-7.5-5.87-17.31-8.85-29.17-8.85-8.37,0-15.82,1.43-22.15,4.24-6.23,2.77-11.13,6.79-14.57,11.95-3.43,5.15-5.17,11.26-5.17,18.17,0,7.47,1.71,13.48,5.09,17.88,3.45,4.48,7.66,7.83,12.53,9.95,5.07,2.21,11.81,4.43,20.02,6.61,6.67,1.73,11.97,3.36,15.75,4.85,4,1.57,7.4,3.85,10.11,6.75,2.86,3.08,4.31,7.07,4.31,11.86,0,6.1-2.28,11.16-6.77,15.04-4.4,3.8-10.54,5.73-18.23,5.73s-13.41-1.97-17.64-5.87c-3.78-3.48-6.11-7.87-6.94-13.06h-18.55Z"/>
      </g>
      <g>
        <path class="cls-1" d="M1398.83,227.99v37.49h44.11v17.09h-44.11v39.15h49.62v17.09h-70.57v-127.91h70.57v17.09h-49.62Z"/>
        <path class="cls-1" d="M1450.48,340.84h-74.63v-131.97h74.63v21.15h-49.62v33.44h44.11v21.15h-44.11v35.09h49.62v21.15ZM1379.91,336.78h66.52v-13.04h-49.62v-43.2h44.11v-13.03h-44.11v-41.55h49.62v-13.04h-66.52v123.86Z"/>
      </g>
      <g>
        <path class="cls-1" d="M1510.88,227.99v37.49h44.11v17.09h-44.11v39.15h49.62v17.09h-70.57v-127.91h70.57v17.09h-49.62Z"/>
        <path class="cls-1" d="M1562.53,340.84h-74.63v-131.97h74.63v21.15h-49.62v33.44h44.11v21.15h-44.11v35.09h49.62v21.15ZM1491.95,336.78h66.52v-13.04h-49.62v-43.2h44.11v-13.03h-44.11v-41.55h49.62v-13.04h-66.52v123.86Z"/>
      </g>
      <g>
        <path class="cls-1" d="M1674.19,218.89c10.23,5.21,18.13,12.68,23.71,22.42,5.57,9.74,8.36,21.11,8.36,34.09s-2.79,24.26-8.36,33.82c-5.58,9.56-13.48,16.88-23.71,21.96-10.23,5.09-22.15,7.63-35.75,7.63h-41.72v-127.73h41.72c13.6,0,25.51,2.6,35.75,7.81ZM1672.82,309.59c7.96-8.09,11.95-19.48,11.95-34.18s-3.98-26.4-11.95-34.74c-7.97-8.33-19.42-12.5-34.37-12.5h-20.77v93.54h20.77c14.95,0,26.4-4.04,34.37-12.13Z"/>
        <path class="cls-1" d="M1638.45,340.84h-43.75v-131.79h43.75c13.86,0,26.19,2.7,36.67,8.03h0c10.54,5.37,18.8,13.18,24.55,23.22,5.73,10.01,8.63,21.82,8.63,35.1s-2.91,25.01-8.64,34.84c-5.76,9.86-14.02,17.52-24.56,22.76-10.47,5.2-22.8,7.84-36.65,7.84ZM1598.76,336.78h39.69c13.22,0,24.94-2.5,34.84-7.42,9.82-4.88,17.51-12,22.86-21.17,5.37-9.2,8.09-20.23,8.09-32.79s-2.72-23.7-8.09-33.09c-5.35-9.34-13.05-16.62-22.87-21.62-9.9-5.04-21.62-7.59-34.83-7.59h-39.69v123.67ZM1638.45,323.74h-22.8v-97.6h22.8c15.45,0,27.51,4.42,35.83,13.12,8.3,8.69,12.51,20.85,12.51,36.14s-4.22,27.16-12.53,35.61h0c-8.32,8.45-20.37,12.73-35.81,12.73ZM1619.71,319.69h18.74c14.31,0,25.39-3.88,32.92-11.52h0c7.54-7.66,11.36-18.68,11.36-32.76s-3.83-25.43-11.38-33.33c-7.53-7.88-18.6-11.87-32.9-11.87h-18.74v89.49Z"/>
      </g>
    </g>
  </g>
</svg>