<?xml version="1.0" encoding="UTF-8"?>
<svg id="Capa_2" data-name="Capa 2" xmlns="http://www.w3.org/2000/svg" viewBox="0 0 501 501">
  <defs>
    <style>
      .cls-1 {
        fill: #606060;
        opacity: .2;
      }

      .cls-2 {
        fill: #4aa3d3;
      }

      .cls-3 {
        fill: #1d1d1b;
      }
    </style>
  </defs>
  <path class="cls-1" d="M-28.24-28.24v557.48h557.48V-28.24H-28.24ZM250.5,501C112.15,501,0,388.85,0,250.5S112.15,0,250.5,0s250.5,112.15,250.5,250.5-112.15,250.5-250.5,250.5Z"/>
  <g>
    <g>
      <path class="cls-2" d="M308.75,122.62c-17.1-6.22-35.1-1.22-50.78,6.58.55-3.13-1-10.21.46-12.64.53-.87,9.66-4.37,11.84-5.64,16.56-9.68,30.07-25.61,29.47-45.83-23.71,1.09-41.03,21.43-45.17,43.71-2.19-5.06-2.58-10.49-4.61-15.79-6.84-17.93-24.69-33.14-44.45-32.77,3.09,26.12,14.55,39.82,37.04,51.84,1.41.75,6.48,2.25,6.68,2.55.72,1.1-.54,12.08,0,14.57-14.55-6.94-27.62-11.25-43.93-8.47-42.92,7.33-40.21,58.79-27.98,90.58,8.45,21.98,39.25,70.34,68.01,59.23,2.38-.92,5.68-4.35,8.11-4.14,1.55.14,6.11,3.15,8.63,3.94,33.04,10.36,62.25-40.68,69.98-66.56,8.09-27.09,8.64-69.53-23.3-81.15ZM322.53,204.94c-6.71,20.2-30.31,61.36-55.36,58.35-5.41-.65-8.45-5.15-14.55-4.96-5.19.16-8.3,4.18-12.68,4.88-22.03,3.51-45.98-34.09-53.34-51.45-11.92-28.12-17.66-78.7,23.55-83.24,12.33-1.36,20.62,1.77,31.32,7,4.42,2.16,6.69,5.45,12.12,5.45,5.79,0,17.41-8.41,24.57-10.49,50.69-14.8,56.22,38.8,44.37,74.48Z"/>
      <path class="cls-2" d="M277.15,164.35c12.45-1.19,7.53,22.77,4.3,29.62-5.02,10.65-14.75,22.62-20.3,4.42-3.28-10.77,3.27-32.82,16-34.04Z"/>
      <path class="cls-2" d="M225.66,164.35c13.39-2.72,21.01,21.61,19.6,32.29-3.37,25.49-20.11.96-23.52-10.31-1.65-5.45-3.64-20.44,3.92-21.98Z"/>
    </g>
    <g>
      <g>
        <path class="cls-3" d="M87.34,325.33h-19.86l-3.41,9.69h-8.12l17-47.51h9.01l17,47.51h-8.19l-3.41-9.69ZM85.16,318.98l-7.71-22.05-7.78,22.05h15.5Z"/>
        <path class="cls-3" d="M100.01,335.77h-9.79l-3.41-9.69h-18.8l-3.41,9.69h-9.73l17.54-49.02h10.07l17.54,49.02ZM91.29,334.26h6.59l-16.46-46h-7.95l-16.46,46h6.52l3.41-9.69h20.93l3.41,9.69ZM86.22,319.73h-17.62l8.85-25.07,8.77,25.07ZM70.72,318.22h13.37l-6.66-19.02-6.71,19.02Z"/>
      </g>
      <g>
        <path class="cls-3" d="M141.68,308.53c-1.14,2.14-2.96,3.88-5.46,5.22-2.5,1.34-5.71,2.01-9.62,2.01h-8.6v19.25h-7.78v-47.44h16.38c3.64,0,6.72.63,9.25,1.88,2.53,1.25,4.41,2.95,5.67,5.08,1.25,2.14,1.88,4.53,1.88,7.17,0,2.41-.57,4.69-1.71,6.83ZM133.21,307.41c1.46-1.34,2.18-3.24,2.18-5.7,0-5.19-2.93-7.78-8.81-7.78h-8.6v15.49h8.6c2.96,0,5.16-.67,6.62-2.01Z"/>
        <path class="cls-3" d="M118.74,335.77h-9.29v-48.95h17.14c3.74,0,6.96.66,9.58,1.96,2.65,1.31,4.66,3.12,5.98,5.38,1.31,2.25,1.98,4.79,1.98,7.55,0,2.52-.6,4.94-1.79,7.18h0c-1.2,2.26-3.15,4.13-5.77,5.53-2.6,1.4-5.96,2.1-9.98,2.1h-7.85v19.25ZM110.96,334.26h6.27v-19.25h9.35c3.77,0,6.89-.65,9.27-1.92,2.36-1.26,4.09-2.92,5.15-4.91h0c1.07-2.02,1.62-4.2,1.62-6.47,0-2.49-.6-4.77-1.77-6.79-1.17-2-2.97-3.61-5.35-4.79-2.41-1.19-5.41-1.8-8.91-1.8h-15.63v45.93ZM126.59,310.17h-9.35v-17h9.35c7.9,0,9.56,4.64,9.56,8.53,0,2.67-.82,4.77-2.43,6.25-1.59,1.47-3.99,2.21-7.13,2.21ZM118.74,308.67h7.85c2.75,0,4.8-.61,6.11-1.81h0c1.31-1.2,1.94-2.89,1.94-5.15,0-4.79-2.56-7.03-8.05-7.03h-7.85v13.99Z"/>
      </g>
      <g>
        <path class="cls-3" d="M186.19,308.53c-1.14,2.14-2.96,3.88-5.46,5.22-2.5,1.34-5.71,2.01-9.62,2.01h-8.6v19.25h-7.78v-47.44h16.38c3.64,0,6.72.63,9.25,1.88,2.53,1.25,4.41,2.95,5.67,5.08,1.25,2.14,1.88,4.53,1.88,7.17,0,2.41-.57,4.69-1.71,6.83ZM177.72,307.41c1.46-1.34,2.18-3.24,2.18-5.7,0-5.19-2.93-7.78-8.81-7.78h-8.6v15.49h8.6c2.96,0,5.16-.67,6.62-2.01Z"/>
        <path class="cls-3" d="M163.25,335.77h-9.29v-48.95h17.14c3.74,0,6.96.66,9.58,1.96,2.65,1.31,4.66,3.12,5.98,5.38,1.31,2.25,1.98,4.79,1.98,7.55,0,2.52-.6,4.94-1.79,7.18h0c-1.2,2.26-3.15,4.12-5.77,5.53-2.6,1.4-5.96,2.1-9.98,2.1h-7.85v19.25ZM155.47,334.26h6.27v-19.25h9.35c3.77,0,6.89-.65,9.27-1.92,2.36-1.26,4.09-2.92,5.15-4.91,1.07-2.02,1.62-4.2,1.62-6.47,0-2.49-.6-4.77-1.77-6.79-1.17-2-2.97-3.61-5.35-4.79-2.41-1.19-5.41-1.8-8.91-1.8h-15.63v45.93ZM171.1,310.17h-9.35v-17h9.35c7.9,0,9.56,4.64,9.56,8.53,0,2.67-.82,4.77-2.43,6.25-1.59,1.47-3.99,2.21-7.13,2.21ZM163.25,308.67h7.85c2.75,0,4.8-.61,6.11-1.81h0c1.31-1.2,1.94-2.89,1.94-5.15,0-4.79-2.56-7.03-8.05-7.03h-7.85v13.99Z"/>
      </g>
      <g>
        <path class="cls-3" d="M206.36,328.74h16.04v6.28h-23.82v-47.44h7.78v41.16Z"/>
        <path class="cls-3" d="M223.15,335.77h-25.33v-48.95h9.29v41.16h16.04v7.79ZM199.33,334.26h22.32v-4.77h-16.04v-41.16h-6.27v45.93Z"/>
      </g>
      <g>
        <path class="cls-3" d="M245.11,293.86v13.93h16.38v6.35h-16.38v14.54h18.43v6.35h-26.21v-47.51h26.21v6.35h-18.43Z"/>
        <path class="cls-3" d="M264.29,335.77h-27.72v-49.02h27.72v7.86h-18.43v12.42h16.38v7.85h-16.38v13.03h18.43v7.86ZM238.08,334.26h24.71v-4.84h-18.43v-16.05h16.38v-4.84h-16.38v-15.43h18.43v-4.84h-24.71v46Z"/>
      </g>
      <g>
        <path class="cls-3" d="M287.26,333.82c-2.55-1.11-4.55-2.7-6.01-4.74-1.46-2.05-2.18-4.44-2.18-7.17h8.33c.18,2.05.99,3.73,2.42,5.05,1.43,1.32,3.45,1.98,6.04,1.98s4.78-.65,6.28-1.95c1.5-1.3,2.25-2.97,2.25-5.02,0-1.59-.47-2.89-1.4-3.89-.93-1-2.09-1.77-3.48-2.32-1.39-.55-3.31-1.14-5.77-1.77-3.1-.82-5.61-1.65-7.54-2.49-1.93-.84-3.58-2.15-4.95-3.93s-2.05-4.14-2.05-7.1c0-2.73.68-5.12,2.05-7.17s3.28-3.62,5.73-4.71c2.46-1.09,5.3-1.64,8.53-1.64,4.6,0,8.36,1.15,11.3,3.45,2.94,2.3,4.56,5.45,4.88,9.45h-8.6c-.14-1.73-.96-3.21-2.46-4.44s-3.48-1.84-5.94-1.84c-2.23,0-4.05.57-5.46,1.71-1.41,1.14-2.12,2.78-2.12,4.92,0,1.46.44,2.65,1.33,3.58.89.93,2.01,1.67,3.38,2.22,1.37.55,3.23,1.14,5.6,1.77,3.14.86,5.7,1.73,7.68,2.59,1.98.86,3.66,2.2,5.05,3.99,1.39,1.8,2.08,4.2,2.08,7.2,0,2.41-.65,4.69-1.95,6.83-1.3,2.14-3.19,3.86-5.67,5.15-2.48,1.3-5.4,1.95-8.77,1.95-3.19,0-6.05-.56-8.6-1.67Z"/>
        <path class="cls-3" d="M295.86,336.25c-3.28,0-6.27-.58-8.9-1.74-2.66-1.16-4.79-2.85-6.32-5-1.54-2.17-2.32-4.73-2.32-7.6v-.75h9.77l.06.69c.17,1.87.88,3.36,2.18,4.56,1.28,1.18,3.14,1.78,5.53,1.78s4.43-.59,5.79-1.76c1.34-1.16,1.99-2.61,1.99-4.45,0-1.41-.39-2.51-1.2-3.38-.85-.91-1.93-1.63-3.21-2.13-1.35-.53-3.26-1.12-5.68-1.75-3.13-.83-5.7-1.68-7.65-2.53-2.04-.89-3.81-2.29-5.25-4.16-1.46-1.9-2.2-4.44-2.2-7.56,0-2.87.73-5.42,2.17-7.59,1.44-2.16,3.48-3.83,6.05-4.98,2.54-1.13,5.52-1.7,8.84-1.7,4.75,0,8.7,1.21,11.76,3.61,3.09,2.42,4.83,5.78,5.17,9.99l.06.81h-10.11l-.05-.69c-.12-1.53-.83-2.81-2.18-3.91-1.36-1.11-3.19-1.67-5.46-1.67-2.04,0-3.72.52-4.99,1.54-1.23,1-1.84,2.41-1.84,4.33,0,1.27.37,2.27,1.12,3.06.81.85,1.86,1.54,3.11,2.04,1.34.53,3.19,1.12,5.51,1.75,3.16.87,5.78,1.76,7.78,2.63,2.09.91,3.89,2.33,5.35,4.22,1.49,1.93,2.24,4.5,2.24,7.66,0,2.54-.69,4.97-2.05,7.22-1.36,2.25-3.37,4.08-5.96,5.43-2.58,1.35-5.65,2.03-9.12,2.03ZM279.85,322.66c.12,2.25.8,4.26,2.02,5.98,1.37,1.93,3.28,3.44,5.69,4.49h0c2.44,1.07,5.23,1.61,8.3,1.61,3.23,0,6.06-.63,8.42-1.86,2.35-1.23,4.15-2.87,5.37-4.88,1.22-2.01,1.84-4.17,1.84-6.43,0-2.82-.65-5.09-1.92-6.74-1.3-1.69-2.9-2.95-4.76-3.76-1.94-.85-4.49-1.71-7.58-2.56-2.37-.64-4.28-1.24-5.68-1.8-1.46-.58-2.69-1.39-3.65-2.4-1.02-1.07-1.54-2.45-1.54-4.1,0-2.37.81-4.22,2.4-5.5,1.54-1.24,3.54-1.87,5.93-1.87,2.62,0,4.78.68,6.42,2.01,1.46,1.19,2.34,2.63,2.64,4.27h7.1c-.44-3.42-1.92-6.08-4.51-8.11-2.79-2.18-6.43-3.29-10.83-3.29-3.11,0-5.88.53-8.23,1.57-2.31,1.03-4.14,2.52-5.41,4.44-1.27,1.91-1.92,4.18-1.92,6.75,0,2.77.64,5.01,1.89,6.64,1.28,1.67,2.85,2.91,4.65,3.69,1.88.82,4.39,1.65,7.43,2.45,2.48.64,4.45,1.25,5.85,1.8,1.49.58,2.75,1.43,3.76,2.51,1.06,1.14,1.6,2.63,1.6,4.41,0,2.27-.85,4.15-2.51,5.59-1.63,1.41-3.91,2.13-6.77,2.13s-4.98-.73-6.55-2.18c-1.41-1.29-2.27-2.92-2.58-4.85h-6.89Z"/>
      </g>
      <g>
        <path class="cls-3" d="M331.19,293.86v13.93h16.38v6.35h-16.38v14.54h18.43v6.35h-26.21v-47.51h26.21v6.35h-18.43Z"/>
        <path class="cls-3" d="M350.37,335.77h-27.72v-49.02h27.72v7.86h-18.43v12.42h16.38v7.85h-16.38v13.03h18.43v7.86ZM324.16,334.26h24.71v-4.84h-18.43v-16.05h16.38v-4.84h-16.38v-15.43h18.43v-4.84h-24.71v46Z"/>
      </g>
      <g>
        <path class="cls-3" d="M372.81,293.86v13.93h16.38v6.35h-16.38v14.54h18.43v6.35h-26.21v-47.51h26.21v6.35h-18.43Z"/>
        <path class="cls-3" d="M391.99,335.77h-27.72v-49.02h27.72v7.86h-18.43v12.42h16.38v7.85h-16.38v13.03h18.43v7.86ZM365.78,334.26h24.7v-4.84h-18.43v-16.05h16.38v-4.84h-16.38v-15.43h18.43v-4.84h-24.7v46Z"/>
      </g>
      <g>
        <path class="cls-3" d="M433.47,290.48c3.8,1.93,6.73,4.71,8.81,8.33,2.07,3.62,3.11,7.84,3.11,12.66s-1.04,9.01-3.11,12.56c-2.07,3.55-5.01,6.27-8.81,8.16-3.8,1.89-8.23,2.83-13.28,2.83h-15.5v-47.44h15.5c5.05,0,9.48.97,13.28,2.9ZM432.95,324.16c2.96-3,4.44-7.24,4.44-12.7s-1.48-9.81-4.44-12.9c-2.96-3.09-7.21-4.64-12.76-4.64h-7.71v34.74h7.71c5.55,0,9.81-1.5,12.76-4.51Z"/>
        <path class="cls-3" d="M420.19,335.77h-16.25v-48.95h16.25c5.15,0,9.73,1,13.62,2.98h0c3.91,1.99,6.98,4.9,9.12,8.62,2.13,3.72,3.21,8.1,3.21,13.04s-1.08,9.29-3.21,12.94c-2.14,3.66-5.21,6.51-9.12,8.45-3.89,1.93-8.47,2.91-13.61,2.91ZM405.45,334.26h14.74c4.91,0,9.26-.93,12.94-2.75,3.65-1.81,6.5-4.46,8.49-7.86,1.99-3.42,3-7.51,3-12.18s-1.01-8.8-3.01-12.29c-1.99-3.47-4.85-6.17-8.49-8.03-3.68-1.87-8.03-2.82-12.93-2.82h-14.74v45.93ZM420.19,329.42h-8.47v-36.25h8.47c5.74,0,10.22,1.64,13.31,4.87,3.08,3.23,4.65,7.74,4.65,13.42s-1.57,10.09-4.65,13.22h0c-3.09,3.14-7.57,4.73-13.3,4.73ZM413.23,327.92h6.96c5.32,0,9.43-1.44,12.23-4.28h0c2.8-2.84,4.22-6.94,4.22-12.17s-1.42-9.44-4.23-12.38c-2.8-2.93-6.91-4.41-12.22-4.41h-6.96v33.24Z"/>
      </g>
    </g>
    <g>
      <path class="cls-2" d="M167.83,353.33v43.8h-5.76v-32.66l-14.56,32.66h-4.05l-14.62-32.73v32.73h-5.76v-43.8h6.2l16.2,36.21,16.2-36.21h6.14Z"/>
      <path class="cls-2" d="M183.34,357.7v14.75h16.08v4.75h-16.08v15.19h17.98v4.75h-23.74v-44.18h23.74v4.75h-17.98Z"/>
      <path class="cls-2" d="M236.29,355.71c3.52,1.79,6.22,4.36,8.1,7.69,1.88,3.33,2.82,7.26,2.82,11.77s-.94,8.43-2.82,11.74c-1.88,3.31-4.58,5.85-8.1,7.6-3.52,1.75-7.69,2.63-12.5,2.63h-13.73v-44.12h13.73c4.81,0,8.98.9,12.5,2.69ZM236.82,387.86c3-3.02,4.49-7.25,4.49-12.69s-1.51-9.77-4.53-12.85c-3.02-3.08-7.35-4.62-13.01-4.62h-7.98v34.69h7.98c5.7,0,10.04-1.51,13.04-4.53Z"/>
      <path class="cls-2" d="M260.56,353.02v44.12h-5.76v-44.12h5.76Z"/>
      <path class="cls-2" d="M271.13,363.43c1.94-3.44,4.59-6.13,7.94-8.07,3.36-1.94,7.08-2.91,11.17-2.91,4.81,0,9.01,1.16,12.6,3.48,3.59,2.32,6.2,5.61,7.85,9.87h-6.9c-1.22-2.66-2.99-4.71-5.29-6.14-2.3-1.43-5.05-2.15-8.26-2.15s-5.84.72-8.29,2.15c-2.45,1.43-4.37,3.47-5.76,6.11-1.39,2.64-2.09,5.73-2.09,9.27s.7,6.57,2.09,9.21c1.39,2.64,3.31,4.67,5.76,6.11,2.45,1.43,5.21,2.15,8.29,2.15s5.96-.7,8.26-2.12c2.3-1.41,4.06-3.45,5.29-6.11h6.9c-1.65,4.22-4.26,7.48-7.85,9.78-3.59,2.3-7.79,3.45-12.6,3.45-4.09,0-7.82-.96-11.17-2.88-3.35-1.92-6-4.59-7.94-8.01-1.94-3.42-2.91-7.28-2.91-11.58s.97-8.18,2.91-11.62Z"/>
      <path class="cls-2" d="M345.31,387.32h-19.24l-3.54,9.81h-6.08l15.95-43.87h6.65l15.89,43.87h-6.08l-3.54-9.81ZM343.67,382.64l-7.98-22.28-7.98,22.28h15.95Z"/>
      <path class="cls-2" d="M367.66,392.45h15.44v4.68h-21.2v-44.12h5.76v39.43Z"/>
    </g>
  </g>
</svg>